<svg xmlns="http://www.w3.org/2000/svg" viewBox="0 0 401.94 76.34"><defs><style>.cls-1{fill:#fff;}</style></defs><title>ntnu-logo-white</title><g id="Layer_2" data-name="Layer 2"><g id="Layer_2-2" data-name="Layer 2"><path class="cls-1" d="M0,37.69v-19A18.7,18.7,0,0,1,18.75,0H56.54A18.75,18.75,0,0,1,75.32,18.51q.11,19.14,0,38.27A18.78,18.78,0,0,1,56.71,75.36q-19.08.08-38.15,0A18.74,18.74,0,0,1,0,56.64ZM56.34,56.37V19H18.94v37.4Z"/><path class="cls-1" d="M305.08,52.69v-50h-11V.12h23.58V2.61h-9.07v3q0,34.5-.09,69c0,.56.3,1.21-.62,1.59s-1.39,0-1.89-.76Q282.52,41.13,259,6.9c-.33-.49-.67-1-1.17-1.68V72.36h11.23v2.49h-24.4v-2.5h4.13c1.52,0,3,0,4.56,0,.77,0,1.06-.21,1-1,0-1.56,0-3.12,0-4.68V2.73h-9.74V.09c.39,0,.78,0,1.17,0,7.2,0,14.4,0,21.6,0a1.94,1.94,0,0,1,1.84,1Q286.6,26.26,304,51.49c.29.43.58.84.88,1.27Z"/><path class="cls-1" d="M102,72.37V2.71H92.3V0h1.33c7.12,0,14.24,0,21.35,0a2.16,2.16,0,0,1,2,1.11q17.5,25.51,35,51c.17.26.37.5.66.87V2.66H141.78V.12h23.5V2.65h-9.06V10q0,32.27,0,64.55a2,2,0,0,1-.57,1.46c-.67.52-1.28.34-1.84-.49Q142,58.34,130.17,41.16L106.28,6.37c-.22-.32-.47-.63-.84-1.14V72.31h11.25v2.55H92.28V72.37Z"/><path class="cls-1" d="M211.29,3V72.34h11.38v2.54H188V72.37h11.3V3.18c-1.36,0-2.62,0-3.87,0-2.2.09-4.4.15-6.58.38a11.72,11.72,0,0,0-8.21,4.88A25,25,0,0,0,175.42,22c0,.63-.13,1.27-.21,2h-3.05V.11h66.3V24h-3.12c-.28-1.81-.5-3.66-.86-5.49a25.45,25.45,0,0,0-3.79-9.13,12,12,0,0,0-9.11-5.74C218.22,3.26,214.82,3.21,211.29,3Z"/><path class="cls-1" d="M336.27,2.68h-8.95V.09h31.45V2.62H348.3V8.71c0,15.08,0,30.16,0,45.23a46.67,46.67,0,0,0,.52,6.57c.91,6.2,4.68,9.83,10.67,11.13a41.81,41.81,0,0,0,19.14-.22c7-1.75,10.35-5.94,10.86-13.14.15-2.15.24-4.31.24-6.46q0-20.4,0-40.8V2.67H379V.13h22.9V2.6h-8.8V8.53c0,13.84,0,27.68,0,41.52a86,86,0,0,1-.68,10.87c-.91,7-5.09,11.25-11.71,13.24-6.09,1.84-12.35,2.06-18.65,1.78a58.47,58.47,0,0,1-13.6-2c-6.9-2-10.66-6.6-11.47-13.63a71.63,71.63,0,0,1-.49-8c-.05-12.4,0-24.8,0-37.19,0-3.84-.08-7.68-.12-11.52C336.34,3.33,336.3,3.06,336.27,2.68Z"/><path class="cls-1" d="M37.54,22.08A15.49,15.49,0,1,1,22,37.61,15.46,15.46,0,0,1,37.54,22.08Z"/></g></g></svg>